<svg width="32" height="32" viewBox="0 0 32 32" fill="none" xmlns="http://www.w3.org/2000/svg">
<path d="M31.5381 16.1281C31.5381 7.58089 24.6115 0.651978 16.0671 0.651978C7.52277 0.651978 0.596191 7.58089 0.596191 16.1281C0.596191 24.6754 7.52277 31.6043 16.0671 31.6043C24.6115 31.6043 31.5381 24.6754 31.5381 16.1281Z" fill="#0F52F1"/>
<path d="M16.7591 24.615V17.3284H19.1124L19.4654 14.4878H16.7591V12.6746C16.7591 11.8525 16.978 11.2922 18.114 11.2922L19.5607 11.2916V8.75086C19.3105 8.71709 18.4518 8.63965 17.4523 8.63965C15.365 8.63965 13.9362 9.96318 13.9362 12.3933V14.4878H11.5757V17.3284H13.9362V24.615H16.7591Z" fill="white"/>
</svg>
