<svg width="32" height="32" viewBox="0 0 32 32" fill="none" xmlns="http://www.w3.org/2000/svg">
<path d="M31.5381 16.0221C31.5381 7.47481 24.6115 0.545898 16.0671 0.545898C7.52277 0.545898 0.596191 7.47481 0.596191 16.0221C0.596191 24.5693 7.52277 31.4982 16.0671 31.4982C24.6115 31.4982 31.5381 24.5693 31.5381 16.0221Z" fill="url(#paint0_linear_2001_3)"/>
<path d="M16.0665 9.88195C18.0665 9.88195 18.3033 9.89073 19.0899 9.92583C19.8208 9.958 20.2156 10.0808 20.4787 10.1832C20.8267 10.3178 21.0781 10.4816 21.3384 10.7419C21.6015 11.0051 21.7623 11.2537 21.8968 11.6018C21.9992 11.865 22.122 12.2628 22.1541 12.9911C22.1892 13.7809 22.198 14.0178 22.198 16.0155C22.198 18.0161 22.1892 18.253 22.1541 19.0398C22.122 19.7711 21.9992 20.1659 21.8968 20.4292C21.7623 20.7772 21.5986 21.0288 21.3384 21.2891C21.0752 21.5523 20.8267 21.7132 20.4787 21.8478C20.2156 21.9501 19.8179 22.073 19.0899 22.1051C18.3004 22.1402 18.0636 22.149 16.0665 22.149C14.0666 22.149 13.8297 22.1402 13.0432 22.1051C12.3122 22.073 11.9175 21.9501 11.6543 21.8478C11.3064 21.7132 11.0549 21.5494 10.7947 21.2891C10.5316 21.0259 10.3707 20.7772 10.2362 20.4292C10.1339 20.1659 10.0111 19.7681 9.97893 19.0398C9.94385 18.2501 9.93507 18.0132 9.93507 16.0155C9.93507 14.0148 9.94385 13.7779 9.97893 12.9911C10.0111 12.2599 10.1339 11.865 10.2362 11.6018C10.3707 11.2537 10.5345 11.0022 10.7947 10.7419C11.0579 10.4786 11.3064 10.3178 11.6543 10.1832C11.9175 10.0808 12.3151 9.958 13.0432 9.92583C13.8297 9.89073 14.0666 9.88195 16.0665 9.88195ZM16.0665 8.53357C14.0344 8.53357 13.78 8.54234 12.9818 8.57744C12.1865 8.61254 11.6397 8.74124 11.166 8.92551C10.6719 9.11855 10.2538 9.37302 9.83858 9.79128C9.42046 10.2066 9.16608 10.6249 8.9731 11.1163C8.7889 11.593 8.66024 12.1371 8.62516 12.9326C8.59007 13.7341 8.5813 13.9885 8.5813 16.0213C8.5813 18.0541 8.59007 18.3086 8.62516 19.1071C8.66024 19.9027 8.7889 20.4496 8.9731 20.9235C9.16608 21.4178 9.42046 21.8361 9.83858 22.2514C10.2538 22.6667 10.6719 22.9241 11.1631 23.1142C11.6397 23.2985 12.1836 23.4272 12.9789 23.4623C13.7771 23.4974 14.0315 23.5062 16.0636 23.5062C18.0957 23.5062 18.3501 23.4974 19.1483 23.4623C19.9437 23.4272 20.4904 23.2985 20.9641 23.1142C21.4553 22.9241 21.8734 22.6667 22.2886 22.2514C22.7038 21.8361 22.9611 21.4178 23.1512 20.9264C23.3354 20.4496 23.4641 19.9056 23.4991 19.11C23.5342 18.3115 23.543 18.0571 23.543 16.0243C23.543 13.9914 23.5342 13.737 23.4991 12.9385C23.4641 12.1429 23.3354 11.5959 23.1512 11.1221C22.967 10.6249 22.7126 10.2066 22.2945 9.79128C21.8793 9.37594 21.4612 9.11855 20.9699 8.92843C20.4933 8.74416 19.9495 8.61547 19.1542 8.58037C18.353 8.54234 18.0987 8.53357 16.0665 8.53357Z" fill="white"/>
<path d="M16.0679 12.175C13.9451 12.175 12.2229 13.8978 12.2229 16.0213C12.2229 18.1448 13.9451 19.8676 16.0679 19.8676C18.1906 19.8676 19.9128 18.1448 19.9128 16.0213C19.9128 13.8978 18.1906 12.175 16.0679 12.175ZM16.0679 18.5162C14.6907 18.5162 13.5738 17.3989 13.5738 16.0213C13.5738 14.6437 14.6907 13.5264 16.0679 13.5264C17.445 13.5264 18.562 14.6437 18.562 16.0213C18.562 17.3989 17.445 18.5162 16.0679 18.5162Z" fill="white"/>
<path d="M20.9602 12.0221C20.9602 12.5193 20.5567 12.92 20.0626 12.92C19.5655 12.92 19.1649 12.5164 19.1649 12.0221C19.1649 11.5249 19.5684 11.1241 20.0626 11.1241C20.5567 11.1241 20.9602 11.5278 20.9602 12.0221Z" fill="white"/>
<defs>
<linearGradient id="paint0_linear_2001_3" x1="5.12755" y1="5.07879" x2="27.0141" y2="26.9579" gradientUnits="userSpaceOnUse">
<stop stop-color="#FAE100"/>
<stop offset="0.15" stop-color="#FCB720"/>
<stop offset="0.3" stop-color="#FF7950"/>
<stop offset="0.5" stop-color="#FF1C74"/>
<stop offset="1" stop-color="#6C1CD1"/>
</linearGradient>
</defs>
</svg>
