<svg width="32" height="32" viewBox="0 0 32 32" fill="none" xmlns="http://www.w3.org/2000/svg">
<path d="M31.5381 15.8099C31.5381 7.26266 24.6115 0.33374 16.0671 0.33374C7.52277 0.33374 0.596191 7.26266 0.596191 15.8099C0.596191 24.3572 7.52277 31.2861 16.0671 31.2861C24.6115 31.2861 31.5381 24.3572 31.5381 15.8099Z" fill="#EB2732"/>
<path d="M16.8127 8.82056C12.2102 8.82056 9.76257 11.7709 9.76257 14.988C9.76257 16.4799 10.5959 18.3405 11.93 18.9305C12.1326 19.0218 12.2428 18.9829 12.2879 18.7951C12.3278 18.6522 12.5031 17.9645 12.5881 17.6402C12.6143 17.5362 12.6007 17.4458 12.5167 17.3482C12.0738 16.8359 11.7222 15.9025 11.7222 15.0268C11.7222 12.7831 13.5054 10.6044 16.5398 10.6044C19.1638 10.6044 20.9996 12.3095 20.9996 14.7485C20.9996 17.5047 19.5416 19.4114 17.6471 19.4114C16.5986 19.4114 15.8176 18.5882 16.0654 17.5697C16.3644 16.3571 16.9513 15.0531 16.9513 14.1784C16.9513 13.3941 16.5083 12.7453 15.6036 12.7453C14.5361 12.7453 13.6702 13.8026 13.6702 15.2221C13.6702 16.124 13.9893 16.7329 13.9893 16.7329C13.9893 16.7329 12.9334 21 12.7371 21.7968C12.4054 23.1461 12.7822 25.331 12.8148 25.5189C12.8347 25.6228 12.9512 25.6554 13.0163 25.5704C13.1202 25.4339 14.3966 23.6121 14.7545 22.2955C14.8845 21.8157 15.4188 19.8703 15.4188 19.8703C15.7704 20.5054 16.7854 21.0378 17.8664 21.0378C21.0824 21.0378 23.4062 18.2102 23.4062 14.7013C23.3946 11.3373 20.5167 8.82056 16.8127 8.82056Z" fill="white"/>
</svg>
