<svg width="32" height="32" viewBox="0 0 32 32" fill="none" xmlns="http://www.w3.org/2000/svg">
<path d="M31.5381 15.916C31.5381 7.36874 24.6115 0.439819 16.0671 0.439819C7.52277 0.439819 0.596191 7.36874 0.596191 15.916C0.596191 24.4632 7.52277 31.3922 16.0671 31.3922C24.6115 31.3922 31.5381 24.4632 31.5381 15.916Z" fill="#F7001B"/>
<path d="M25.1723 11.5127C25.0651 11.1091 24.8538 10.7408 24.5596 10.4445C24.2653 10.1483 23.8985 9.93456 23.4957 9.82472C22.013 9.4259 16.0867 9.4259 16.0867 9.4259C16.0867 9.4259 10.1603 9.4259 8.67764 9.82472C8.27488 9.93456 7.90802 10.1483 7.61378 10.4445C7.31954 10.7408 7.10824 11.1091 7.00102 11.5127C6.60449 13.0023 6.60449 16.1088 6.60449 16.1088C6.60449 16.1088 6.60449 19.2153 7.00102 20.7049C7.10824 21.1085 7.31954 21.4768 7.61378 21.7731C7.90802 22.0693 8.27488 22.283 8.67764 22.3929C10.1603 22.7917 16.0867 22.7917 16.0867 22.7917C16.0867 22.7917 22.013 22.7917 23.4957 22.3929C23.8985 22.283 24.2653 22.0693 24.5596 21.7731C24.8538 21.4768 25.0651 21.1085 25.1723 20.7049C25.5689 19.2153 25.5689 16.1088 25.5689 16.1088C25.5689 16.1088 25.5689 13.0023 25.1723 11.5127Z" fill="white"/>
<path d="M14.147 18.9288V13.2871L19.1036 16.1079L14.147 18.9288Z" fill="#F7001B"/>
</svg>
